<?xml version="1.0" standalone="no"?>
<!DOCTYPE svg PUBLIC "-//W3C//DTD SVG 20010904//EN"
 "http://www.w3.org/TR/2001/REC-SVG-20010904/DTD/svg10.dtd">
<svg version="1.0" xmlns="http://www.w3.org/2000/svg"
 width="250px" height="250px" viewBox="0 0 500.000000 500.000000"
 preserveAspectRatio="xMidYMid meet">

<g transform="translate(0.000000,500.000000) scale(0.100000,-0.100000)"
fill="#000000" stroke="none">
<path d="M2215 4161 c-181 -33 -297 -72 -469 -158 -423 -212 -744 -611 -861
-1068 -32 -128 -46 -225 -31 -225 6 0 21 52 34 116 99 514 446 960 919 1180
116 54 281 107 409 130 150 28 442 26 590 -4 669 -134 1179 -643 1306 -1306
15 -76 27 -116 36 -116 8 0 11 8 8 23 -3 12 -13 60 -22 107 -128 669 -675
1205 -1348 1320 -155 26 -424 27 -571 1z"/>
<path d="M2435 3889 l-28 -103 -48 100 c-26 54 -48 94 -48 88 -2 -21 90 -206
99 -198 11 13 62 192 58 205 -2 7 -17 -35 -33 -92z"/>
<path d="M2540 3948 c0 -24 -3 -73 -7 -110 l-6 -68 64 2 c60 2 61 2 14 5 -27
2 -54 8 -58 12 -4 4 -5 27 -1 50 l7 43 43 -4 c24 -2 44 0 44 4 0 5 -20 8 -45
8 l-45 0 0 40 0 40 57 0 c70 0 66 5 -9 14 l-58 6 0 -42z"/>
<path d="M2740 3968 c0 -3 -9 -50 -20 -104 -11 -54 -17 -101 -13 -105 5 -4 31
-10 58 -13 l50 -5 -47 11 c-56 13 -56 15 -32 133 9 42 13 79 10 82 -3 4 -6 4
-6 1z"/>
<path d="M2076 3893 c-9 -65 -16 -201 -7 -163 10 50 16 57 58 65 34 6 40 4 65
-27 15 -18 28 -28 28 -23 0 6 -31 50 -69 98 l-69 88 -6 -38z m73 -77 c-2 -2
-19 -8 -36 -14 -33 -11 -33 -11 -33 21 0 18 3 42 6 55 6 21 8 20 36 -18 17
-23 29 -42 27 -44z"/>
<path d="M2893 3833 c-18 -54 -33 -102 -33 -105 0 -9 100 -41 106 -35 3 3 -17
12 -45 22 l-49 16 29 87 c16 48 28 93 27 101 -2 7 -18 -31 -35 -86z"/>
<path d="M1931 3864 c19 -56 76 -184 82 -184 4 0 0 17 -9 38 -8 20 -25 60 -36
87 -17 43 -48 93 -37 59z"/>
<path d="M3089 3825 c-32 -17 -59 -71 -59 -118 0 -27 7 -41 31 -61 39 -33 79
-33 118 0 63 53 63 147 0 179 -35 18 -56 18 -90 0z m82 -10 c38 -20 51 -53 38
-99 -10 -36 -59 -86 -85 -86 -24 0 -71 28 -78 45 -17 45 11 117 53 140 33 18
36 18 72 0z"/>
<path d="M1803 3810 c-56 -34 -57 -115 -2 -170 35 -35 75 -39 120 -13 44 26
35 35 -10 10 -37 -21 -41 -21 -74 -5 -34 16 -67 68 -67 106 0 29 37 71 73 81
21 6 25 10 12 10 -11 1 -35 -8 -52 -19z"/>
<path d="M1650 3715 c0 -4 17 -31 38 -59 61 -81 66 -93 48 -121 -21 -32 -52
-48 -77 -40 -11 4 -43 36 -71 71 -28 36 -53 63 -55 60 -10 -10 100 -136 124
-142 50 -13 111 42 99 89 -3 12 -26 49 -52 82 -54 71 -54 71 -54 60z"/>
<path d="M3294 3695 c-15 -23 -14 -27 12 -79 23 -46 25 -57 15 -70 -20 -23
-55 -19 -90 10 -17 14 -31 21 -31 15 0 -6 18 -23 41 -38 38 -25 43 -26 67 -12
35 19 39 51 13 93 -24 38 -27 66 -9 84 18 18 33 15 67 -14 17 -14 31 -21 31
-16 0 17 -51 52 -76 52 -14 0 -30 -10 -40 -25z"/>
<path d="M2269 3560 c-399 -84 -739 -416 -828 -809 -15 -67 5 -47 22 23 41
166 149 351 281 481 220 218 501 327 805 312 64 -3 148 -13 186 -22 389 -89
692 -382 801 -773 10 -34 21 -62 25 -62 4 0 -1 31 -11 69 -111 400 -418 693
-820 782 -115 25 -340 25 -461 -1z"/>
<path d="M3426 3559 c-32 -25 -56 -69 -56 -102 0 -30 40 -74 75 -83 59 -15
135 54 135 122 0 70 -95 109 -154 63z m118 -15 c14 -15 26 -36 26 -48 0 -34
-37 -85 -75 -103 -41 -19 -74 -9 -101 31 -22 34 -12 70 31 113 42 42 81 44
119 7z"/>
<path d="M1400 3493 c0 -11 137 -143 149 -143 4 0 25 18 46 40 21 22 35 40 30
40 -6 0 -24 -17 -42 -37 l-32 -38 -75 75 c-42 41 -76 69 -76 63z"/>
<path d="M2199 2973 c-32 -74 -132 -421 -201 -694 -60 -240 -61 -247 -45 -273
28 -43 61 -34 252 65 96 49 194 93 217 97 23 4 43 13 46 20 12 36 -115 -8
-278 -97 -130 -71 -192 -97 -210 -86 -19 12 -9 72 54 320 95 369 194 686 196
628 0 -7 5 -13 10 -13 6 0 10 18 10 40 0 57 -25 53 -51 -7z"/>
<path d="M2704 3001 c-72 -44 -162 -187 -171 -274 -5 -38 -1 -48 23 -76 31
-34 111 -58 102 -30 -2 7 -19 16 -36 20 -50 10 -62 26 -62 79 0 62 47 154 113
221 50 51 73 60 84 33 3 -9 -19 -125 -51 -258 -79 -337 -96 -428 -103 -531 -6
-111 4 -145 45 -145 53 0 149 122 298 381 106 186 298 559 290 566 -11 11 -21
-6 -135 -225 -193 -370 -315 -573 -399 -661 -46 -48 -59 -51 -73 -13 -21 53 6
223 97 606 59 252 65 300 35 316 -25 13 -21 13 -57 -9z"/>
<path d="M670 2500 c0 -7 167 -10 480 -10 313 0 480 3 480 10 0 7 -167 10
-480 10 -313 0 -480 -3 -480 -10z"/>
<path d="M3370 2500 c0 -7 167 -10 480 -10 313 0 480 3 480 10 0 7 -167 10
-480 10 -313 0 -480 -3 -480 -10z"/>
<path d="M855 2213 c40 -243 124 -455 266 -669 95 -143 303 -353 439 -443 255
-169 509 -259 803 -284 498 -41 970 134 1327 493 235 237 398 553 455 884 8
49 15 90 15 92 0 2 -6 4 -14 4 -9 0 -15 -19 -20 -57 -10 -89 -53 -246 -97
-357 -216 -546 -714 -938 -1304 -1026 -114 -18 -360 -15 -480 4 -348 57 -657
217 -910 471 -127 128 -218 255 -300 420 -76 152 -117 272 -146 431 -14 71
-27 114 -34 114 -10 0 -9 -17 0 -77z"/>
<path d="M1440 2273 c0 -36 50 -183 90 -263 162 -321 469 -540 825 -591 47 -7
130 -9 200 -5 461 22 861 337 989 780 15 49 24 91 21 94 -2 3 -7 -1 -9 -9 -3
-8 -19 -56 -36 -108 -60 -184 -149 -322 -294 -458 -199 -186 -447 -283 -726
-283 -281 0 -524 96 -728 286 -140 130 -228 270 -291 460 -22 65 -40 109 -41
97z"/>
<path d="M3570 1712 c96 -79 108 -103 74 -150 -26 -37 -67 -29 -137 28 -33 27
-63 47 -66 45 -2 -3 -2 -6 0 -8 2 -2 29 -24 59 -49 73 -61 98 -67 138 -33 37
31 44 83 14 113 -33 33 -109 92 -118 92 -5 0 11 -17 36 -38z"/>
<path d="M1399 1705 c-35 -19 -59 -58 -59 -96 0 -32 33 -89 52 -89 5 0 -2 14
-16 31 -14 17 -26 42 -26 55 0 51 58 104 115 104 25 0 58 -26 82 -66 6 -10 12
-14 12 -7 1 7 -13 28 -30 48 -25 28 -38 35 -68 35 -20 -1 -48 -7 -62 -15z"/>
<path d="M1564 1570 c-39 -15 -74 -68 -74 -111 0 -116 162 -120 200 -5 25 77
-51 147 -126 116z m75 -15 c53 -27 56 -87 7 -139 -25 -27 -42 -36 -65 -36 -41
0 -81 38 -81 79 0 44 59 107 103 110 4 1 21 -6 36 -14z"/>
<path d="M3379 1461 c88 -99 80 -96 131 -51 25 22 41 39 35 40 -5 0 -24 -15
-43 -32 l-34 -33 -67 73 c-86 92 -103 95 -22 3z"/>
<path d="M1723 1371 c-29 -48 -53 -90 -53 -94 0 -13 79 -47 109 -47 38 0 88
49 97 94 8 45 -15 86 -63 113 l-38 21 -52 -87z m99 48 c42 -31 51 -61 32 -110
-27 -66 -93 -85 -149 -43 -20 15 -20 15 4 57 41 71 71 117 77 117 3 0 19 -10
36 -21z"/>
<path d="M3190 1427 c0 -4 9 -25 20 -47 l20 -39 -56 -30 -55 -30 -20 32 c-10
18 -21 37 -23 42 -2 6 -6 8 -9 5 -3 -3 18 -46 46 -97 51 -91 81 -124 36 -39
-13 25 -21 47 -19 49 12 9 99 57 104 57 3 0 15 -18 26 -39 11 -22 25 -43 32
-47 6 -4 -10 33 -37 82 -47 87 -65 115 -65 101z"/>
<path d="M1951 1311 c-39 -75 -70 -151 -62 -151 7 0 21 28 77 158 20 45 9 40
-15 -7z"/>
<path d="M2952 1313 c-60 -24 -84 -45 -27 -23 15 6 29 9 30 8 1 -2 18 -46 38
-98 20 -52 36 -87 37 -78 0 9 -13 52 -30 95 -16 42 -30 81 -30 84 0 4 14 12
30 18 17 5 30 12 30 15 0 10 -12 6 -78 -21z"/>
<path d="M2012 1219 c-18 -56 -31 -104 -28 -106 2 -3 18 37 34 88 l30 93 22
-75 c12 -40 26 -91 32 -111 6 -21 14 -38 18 -38 3 0 19 39 34 88 16 48 31 94
34 102 3 10 2 12 -6 5 -5 -5 -21 -45 -35 -89 -13 -43 -27 -75 -29 -70 -3 5
-18 52 -33 104 -14 52 -30 98 -34 103 -4 4 -22 -38 -39 -94z"/>
<path d="M2858 1170 c14 -55 29 -100 33 -100 3 0 -5 45 -20 100 -14 55 -29
100 -33 100 -3 0 6 -45 20 -100z"/>
<path d="M2777 1253 c-3 -4 -8 -36 -12 -71 -14 -123 -17 -125 -56 -32 -19 46
-40 85 -45 87 -7 2 -17 -37 -25 -94 l-14 -98 -19 50 c-31 81 -57 137 -62 133
-2 -3 15 -51 38 -107 26 -65 44 -98 48 -89 4 7 13 52 20 101 7 48 13 87 15 87
2 0 20 -40 41 -90 20 -49 40 -90 44 -90 7 0 40 212 35 218 -2 2 -5 0 -8 -5z"/>
<path d="M2294 1240 c-51 -20 -81 -105 -58 -165 10 -24 58 -45 107 -45 l44 0
6 48 c3 26 4 47 4 48 -11 7 -76 10 -72 3 4 -5 17 -9 31 -9 23 0 25 -3 22 -37
-2 -31 -7 -39 -27 -41 -88 -13 -139 65 -96 148 18 36 70 55 109 40 40 -15 56
-11 21 5 -34 16 -61 17 -91 5z"/>
</g>
</svg>
